<svg xmlns="http://www.w3.org/2000/svg" width="1200" height="800" viewBox="0 0 1200 800" role="img" aria-label="Braun editorial illustration">
  <defs>
    <linearGradient id="bg" x1="0" y1="0" x2="1" y2="1"><stop offset="0" stop-color="#f1e4d8"/><stop offset="1" stop-color="#d6bda5"/></linearGradient>
    <linearGradient id="brown" x1="0" y1="0" x2="1" y2="1"><stop offset="0" stop-color="#6b4632"/><stop offset="1" stop-color="#2f1f18"/></linearGradient>
    <filter id="shadow" x="-20%" y="-20%" width="140%" height="140%"><feDropShadow dx="0" dy="22" stdDeviation="24" flood-color="#2c1e16" flood-opacity="0.18"/></filter>
  </defs>
  <rect width="1200" height="800" fill="url(#bg)"/>
  <circle cx="210" cy="620" r="210" fill="#ffffff" opacity="0.28"/>
  <circle cx="995" cy="165" r="180" fill="#c5a059" opacity="0.13"/>
  <rect x="190" y="110" width="820" height="560" rx="42" fill="#fbf8f3" filter="url(#shadow)"/>
  <rect x="260" y="175" width="300" height="430" rx="38" fill="url(#brown)"/>
  <rect x="600" y="175" width="310" height="430" rx="38" fill="#5b3a29"/>
  <g fill="none" stroke="#f8f4ed" stroke-linecap="round" opacity="0.18">
    <path d="M292 245 C360 290 470 215 535 270" stroke-width="6"/>
    <path d="M292 360 C380 425 455 330 535 392" stroke-width="5"/>
    <path d="M632 252 C700 310 815 232 886 288" stroke-width="6"/>
  </g>
  <g opacity="0.94">
    <rect x="348" y="245" width="82" height="238" rx="32" fill="#f8f4ed"/>
    <rect x="712" y="235" width="84" height="240" rx="32" fill="#8f5f3c"/>
    <rect x="824" y="250" width="40" height="225" rx="20" fill="#c5a059" opacity="0.88"/>
  </g>
  <g transform="translate(300 625)">
    <rect x="0" y="0" width="96" height="32" rx="16" fill="#2f1f18"/>
    <rect x="120" y="0" width="96" height="32" rx="16" fill="#5b3a29"/>
    <rect x="240" y="0" width="96" height="32" rx="16" fill="#8f5f3c"/>
    <rect x="360" y="0" width="96" height="32" rx="16" fill="#c48a54"/>
    <rect x="480" y="0" width="96" height="32" rx="16" fill="#f8f4ed" stroke="#7a5a43" stroke-opacity="0.14"/>
  </g>
</svg>
