<svg xmlns="http://www.w3.org/2000/svg" viewBox="0 0 1200 800" role="img" aria-labelledby="title desc">
  <title id="title">Chinos im Stil-Glossar</title>
  <desc id="desc">Eine stilisierte Chino-Hose mit Twill-Struktur und neutralen Farbfeldern.</desc>
  <rect width="1200" height="800" fill="#F8F3EC"/>
  <rect x="84" y="74" width="1032" height="652" rx="46" fill="#FFFDF9" stroke="#D7C7B7" stroke-width="3"/>
  <rect x="166" y="160" width="240" height="460" rx="34" fill="#EFE4D8"/>
  <rect x="794" y="160" width="240" height="460" rx="34" fill="#EFE4D8"/>
  <path d="M486 160 L714 160 L760 640 L664 640 L606 300 L536 640 L440 640 Z" fill="#B99670"/>
  <path d="M486 160 C532 202 668 202 714 160" fill="none" stroke="#76583F" stroke-width="6" opacity="0.58"/>
  <path d="M600 184 L606 300" stroke="#76583F" stroke-width="5" opacity="0.35"/>
  <path d="M516 226 C544 248 568 258 600 260" fill="none" stroke="#76583F" stroke-width="4" opacity="0.45"/>
  <path d="M684 226 C656 248 632 258 600 260" fill="none" stroke="#76583F" stroke-width="4" opacity="0.45"/>
  <g opacity="0.24" stroke="#FFF8EF" stroke-width="5">
    <line x1="460" y1="216" x2="714" y2="470"/>
    <line x1="440" y1="296" x2="736" y2="592"/>
    <line x1="508" y1="166" x2="760" y2="418"/>
    <line x1="600" y1="166" x2="752" y2="318"/>
    <line x1="510" y1="640" x2="440" y2="570"/>
    <line x1="674" y1="640" x2="760" y2="554"/>
  </g>
  <circle cx="282" cy="390" r="78" fill="#D8C1A5" opacity="0.78"/>
  <circle cx="918" cy="390" r="78" fill="#2E4057" opacity="0.88"/>
  <text x="600" y="704" text-anchor="middle" font-family="Georgia, serif" font-size="44" fill="#3A2B25">Chinos</text>
</svg>
