<svg xmlns="http://www.w3.org/2000/svg" width="1200" height="800" viewBox="0 0 1200 800" role="img" aria-label="Oliv editorial illustration">
  <defs>
    <linearGradient id="bg" x1="0" y1="0" x2="1" y2="1">
      <stop offset="0" stop-color="#f7efe7"/>
      <stop offset="1" stop-color="#dfcbb9"/>
    </linearGradient>
    <linearGradient id="main" x1="0" y1="0" x2="1" y2="1">
      <stop offset="0" stop-color="#C0C0AE"/>
      <stop offset="0.52" stop-color="#6B6A3F"/>
      <stop offset="1" stop-color="#424127"/>
    </linearGradient>
    <filter id="shadow" x="-20%" y="-20%" width="140%" height="140%">
      <feDropShadow dx="0" dy="22" stdDeviation="26" flood-color="#1b1b1b" flood-opacity="0.16"/>
    </filter>
  </defs>
  <rect width="1200" height="800" fill="url(#bg)"/>
  <circle cx="205" cy="150" r="150" fill="#ffffff" opacity="0.32"/>
  <circle cx="1000" cy="620" r="210" fill="#DEDED4" opacity="0.42"/>
  <rect x="178" y="108" width="844" height="568" rx="44" fill="#fbf8f3" filter="url(#shadow)"/>
  <rect x="252" y="172" width="286" height="430" rx="36" fill="url(#main)"/>
  <rect x="574" y="172" width="370" height="430" rx="36" fill="#858461"/>
  <path d="M620 225 C706 299 800 189 900 271" fill="none" stroke="#fbf8f3" stroke-opacity="0.38" stroke-width="8" stroke-linecap="round"/>
  <path d="M620 359 C710 387 812 319 900 347" fill="none" stroke="#fbf8f3" stroke-opacity="0.24" stroke-width="5" stroke-linecap="round"/>
  <path d="M620 457 C724 535 804 417 900 499" fill="none" stroke="#fbf8f3" stroke-opacity="0.18" stroke-width="4" stroke-linecap="round"/>
  <g opacity="0.96">
    <rect x="314" y="228" width="116" height="216" rx="42" fill="#f8f4ed"/>
    <rect x="342" y="462" width="60" height="92" rx="24" fill="#D8C4B3" opacity="0.88"/>
    <rect x="682" y="225" width="112" height="250" rx="38" fill="#424127" opacity="0.88"/>
    <rect x="822" y="254" width="42" height="226" rx="21" fill="#DEDED4" opacity="0.94"/>
  </g>
  <g transform="translate(286 628)">
    <rect x="0" y="0" width="104" height="34" rx="17" fill="#2C2C1A"/>
    <rect x="126" y="0" width="104" height="34" rx="17" fill="#6B6A3F"/>
    <rect x="252" y="0" width="104" height="34" rx="17" fill="#C0C0AE"/>
    <rect x="378" y="0" width="104" height="34" rx="17" fill="#f8f4ed" stroke="#7a5a43" stroke-opacity="0.14"/>
    <rect x="504" y="0" width="104" height="34" rx="17" fill="#D8C4B3" opacity="0.9"/>
  </g>
</svg>
