<svg xmlns="http://www.w3.org/2000/svg" width="1200" height="800" viewBox="0 0 1200 800" role="img" aria-labelledby="title desc">
  <title id="title">Paperbag-Hose</title>
  <desc id="desc">Ruhige ESKYNA Glossar-Grafik zu Paperbag-Hose.</desc>
  <rect width="1200" height="800" fill="#ECE6D9"/>
  <rect x="90" y="80" width="1020" height="640" rx="34" fill="#fffaf4" opacity="0.78"/>
  <circle cx="945" cy="185" r="84" fill="#A9876A" opacity="0.26"/>
  <circle cx="246" cy="630" r="108" fill="#A9876A" opacity="0.18"/>
  <path d="M210 185 C335 132 470 146 600 196 C744 251 865 245 1010 176" fill="none" stroke="#A9876A" stroke-width="7" stroke-linecap="round" opacity="0.52"/>
  <path d="M260 244 C338 306 394 416 366 612" fill="none" stroke="#3A3029" stroke-width="13" stroke-linecap="round" opacity="0.58"/>
  <path d="M512 238 C484 336 488 462 548 618" fill="none" stroke="#3A3029" stroke-width="13" stroke-linecap="round" opacity="0.42"/>
  <path d="M710 238 C770 340 790 462 742 618" fill="none" stroke="#3A3029" stroke-width="13" stroke-linecap="round" opacity="0.50"/>
  <path d="M884 244 C817 326 811 469 924 612" fill="none" stroke="#3A3029" stroke-width="13" stroke-linecap="round" opacity="0.34"/>
  <rect x="430" y="342" width="340" height="88" rx="44" fill="#A9876A" opacity="0.22"/>
  <line x1="454" y1="385" x2="746" y2="385" stroke="#3A3029" stroke-width="3" opacity="0.34"/>
  <text x="600" y="700" text-anchor="middle" font-family="Georgia, 'Times New Roman', serif" font-size="46" fill="#3A3029" opacity="0.86">Paperbag-Hose</text>
</svg>
