<svg xmlns="http://www.w3.org/2000/svg" width="1200" height="800" viewBox="0 0 1200 800" role="img" aria-labelledby="title desc">
  <title id="title">Passform Grafik</title>
  <desc id="desc">Ein Blazer mit Messlinien zeigt Schulter, Taille, Saum und Bewegungsraum.</desc>
  <defs>
    <linearGradient id="bg" x1="0" y1="0" x2="1" y2="1">
      <stop offset="0" stop-color="#f9f6f0"/>
      <stop offset="1" stop-color="#e3d5c8"/>
    </linearGradient>
    <linearGradient id="blazer" x1="0" y1="0" x2="1" y2="1">
      <stop offset="0" stop-color="#6b4d3c"/>
      <stop offset="1" stop-color="#2c1e16"/>
    </linearGradient>
    <filter id="shadow" x="-20%" y="-20%" width="140%" height="140%">
      <feDropShadow dx="0" dy="26" stdDeviation="24" flood-color="#2c1e16" flood-opacity="0.15"/>
    </filter>
  </defs>
  <rect width="1200" height="800" fill="url(#bg)"/>
  <circle cx="1088" cy="652" r="190" fill="#8b5e34" opacity="0.08"/>
  <circle cx="118" cy="134" r="180" fill="#c5a059" opacity="0.12"/>

  <g filter="url(#shadow)">
    <rect x="182" y="118" width="836" height="564" rx="36" fill="#fffaf4" opacity="0.94"/>
  </g>

  <g transform="translate(418 150)">
    <path d="M182 0 C138 42 72 58 36 118 C10 164 0 292 0 502 H364 C364 292 354 164 328 118 C292 58 226 42 182 0Z" fill="url(#blazer)"/>
    <path d="M128 48 L182 154 L236 48 C216 30 198 14 182 0 C166 14 148 30 128 48Z" fill="#fffaf4" opacity="0.92"/>
    <path d="M128 48 L170 502" fill="none" stroke="#c5a059" stroke-width="8" opacity="0.72"/>
    <path d="M236 48 L194 502" fill="none" stroke="#c5a059" stroke-width="8" opacity="0.72"/>
    <path d="M72 126 C114 170 248 170 292 126" fill="none" stroke="#fffaf4" stroke-width="7" opacity="0.22"/>
    <path d="M96 290 C142 326 224 326 268 290" fill="none" stroke="#fffaf4" stroke-width="7" opacity="0.18"/>
    <circle cx="182" cy="294" r="10" fill="#c5a059"/>
    <circle cx="182" cy="354" r="10" fill="#c5a059"/>
  </g>

  <g stroke="#8b5e34" stroke-width="5" stroke-linecap="round" opacity="0.82">
    <path d="M360 232 H840"/>
    <path d="M346 232 l22 -18"/>
    <path d="M346 232 l22 18"/>
    <path d="M854 232 l-22 -18"/>
    <path d="M854 232 l-22 18"/>
    <path d="M326 520 H874"/>
    <path d="M312 520 l22 -18"/>
    <path d="M312 520 l22 18"/>
    <path d="M888 520 l-22 -18"/>
    <path d="M888 520 l-22 18"/>
  </g>

  <g font-family="Montserrat, Arial, sans-serif" fill="#2c1e16" opacity="0.78">
    <text x="206" y="238" font-size="26">Schulter</text>
    <text x="894" y="528" font-size="26">Saum</text>
    <text x="444" y="716" font-size="28">Sitz, Linie, Bewegung</text>
  </g>
</svg>
