<svg xmlns="http://www.w3.org/2000/svg" width="1200" height="800" viewBox="0 0 1200 800" role="img" aria-labelledby="title desc">
  <title id="title">Pink im Stil-Glossar</title>
  <desc id="desc">Editoriale Grafik mit Pink-Nuancen, ruhigen Farbfeldern und feiner Stoffstruktur</desc>
  <rect width="1200" height="800" fill="#F8F3EC"/>
  <circle cx="220" cy="150" r="180" fill="#FFFFFF" opacity="0.35"/>
  <circle cx="980" cy="660" r="220" fill="#f5a6c8" opacity="0.28"/>
  <rect x="130" y="90" width="940" height="620" rx="46" fill="#FFFDF9" stroke="#D7C7B7" stroke-width="3"/>
  <rect x="210" y="180" width="120" height="330" rx="34" fill="#f5a6c8" stroke="#4a3a31" stroke-opacity="0.12"/><path d="M228 282 C264 244 292 326 326 286" fill="none" stroke="#ffffff" stroke-opacity="0.26" stroke-width="5" stroke-linecap="round"/><rect x="360" y="180" width="120" height="330" rx="34" fill="#d94b8a" stroke="#4a3a31" stroke-opacity="0.12"/><path d="M378 282 C414 244 442 326 476 286" fill="none" stroke="#ffffff" stroke-opacity="0.26" stroke-width="5" stroke-linecap="round"/><rect x="510" y="180" width="120" height="330" rx="34" fill="#b71f67" stroke="#4a3a31" stroke-opacity="0.12"/><path d="M528 282 C564 244 592 326 626 286" fill="none" stroke="#ffffff" stroke-opacity="0.26" stroke-width="5" stroke-linecap="round"/><rect x="660" y="180" width="120" height="330" rx="34" fill="#72103f" stroke="#4a3a31" stroke-opacity="0.12"/><path d="M678 282 C714 244 742 326 776 286" fill="none" stroke="#ffffff" stroke-opacity="0.26" stroke-width="5" stroke-linecap="round"/>
  <path d="M260 560 C430 646 760 646 940 552" fill="none" stroke="#B88762" stroke-width="5" stroke-linecap="round" opacity="0.55"/>
  <circle cx="360" cy="590" r="34" fill="#f5a6c8" stroke="#4a3a31" stroke-opacity="0.14"/><circle cx="480" cy="590" r="34" fill="#d94b8a" stroke="#4a3a31" stroke-opacity="0.14"/><circle cx="600" cy="590" r="34" fill="#b71f67" stroke="#4a3a31" stroke-opacity="0.14"/><circle cx="720" cy="590" r="34" fill="#72103f" stroke="#4a3a31" stroke-opacity="0.14"/>
  <text x="600" y="704" text-anchor="middle" font-family="Georgia, serif" font-size="44" fill="#3A2B25">Pink</text>
</svg>