<svg xmlns="http://www.w3.org/2000/svg" viewBox="0 0 1200 800" role="img" aria-labelledby="title desc">
<title id="title">Plisseerock</title>
<desc id="desc">Ruhige ESKYNA Glossar Grafik zu Plisseerock</desc>
<rect width="1200" height="800" fill="#F7F1EA"/>
<circle cx="995" cy="145" r="82" fill="#E5D6C7" opacity="0.75"/>
<rect x="86" y="94" width="1028" height="612" rx="42" fill="#FFF8EF" opacity="0.72"/>
<path d="M144 675 C362 622 548 715 754 658 C910 615 997 646 1090 604" fill="none" stroke="#B7A99C" stroke-width="3" opacity="0.55"/>
<path d="M455 220 H745 L820 646 H380 Z" fill="#E5D6C7" stroke="#2F2A27" stroke-width="12" stroke-linejoin="round"/>
<path d="M500 236 L465 634 M555 236 L535 634 M610 236 L605 634 M665 236 L690 634 M720 236 L765 634" stroke="#B7A99C" stroke-width="7"/>
<rect x="130" y="132" width="118" height="168" rx="28" fill="#E5D6C7" opacity="0.72"/>
<rect x="952" y="494" width="118" height="168" rx="28" fill="#6E7F8F" opacity="0.24"/>
<text x="600" y="735" text-anchor="middle" font-family="Georgia, 'Times New Roman', serif" font-size="34" fill="#2F2A27" opacity="0.82">Plisseerock</text>
</svg>
