<svg xmlns="http://www.w3.org/2000/svg" width="1200" height="800" viewBox="0 0 1200 800" role="img" aria-label="Proportion editorial illustration">
  <defs>
    <linearGradient id="bg" x1="0" y1="0" x2="1" y2="1"><stop offset="0" stop-color="#f8f2ea"/><stop offset="1" stop-color="#e9dbcd"/></linearGradient>
    <filter id="shadow" x="-20%" y="-20%" width="140%" height="140%"><feDropShadow dx="0" dy="18" stdDeviation="20" flood-color="#2c1e16" flood-opacity="0.14"/></filter>
  </defs>
  <rect width="1200" height="800" fill="url(#bg)"/>
  <circle cx="210" cy="150" r="170" fill="#ffffff" opacity="0.36"/>
  <circle cx="990" cy="650" r="220" fill="#c5a059" opacity="0.11"/>
  <g filter="url(#shadow)">
    <rect x="210" y="130" width="780" height="540" rx="36" fill="#fbf8f3" stroke="#7a5a43" stroke-opacity="0.15"/>
  </g>
  <g stroke="#8b5e34" stroke-opacity="0.25" stroke-width="2">
    <line x1="300" y1="210" x2="900" y2="210"/>
    <line x1="300" y1="365" x2="900" y2="365"/>
    <line x1="300" y1="555" x2="900" y2="555"/>
  </g>
  <g transform="translate(320 160)">
    <rect x="0" y="70" width="110" height="150" rx="48" fill="#d7c4b2"/>
    <rect x="12" y="224" width="86" height="220" rx="34" fill="#3a312c"/>
    <path d="M24 220 C45 250 70 250 92 220" fill="none" stroke="#fbf8f3" stroke-width="10" stroke-linecap="round"/>
    <line x1="55" y1="225" x2="55" y2="442" stroke="#fbf8f3" stroke-opacity="0.35" stroke-width="3"/>
  </g>
  <g transform="translate(545 145)">
    <rect x="0" y="50" width="120" height="215" rx="52" fill="#b88762"/>
    <rect x="-18" y="268" width="156" height="295" rx="40" fill="#efede8" stroke="#7a5a43" stroke-opacity="0.18"/>
    <line x1="60" y1="272" x2="60" y2="558" stroke="#7a5a43" stroke-opacity="0.18" stroke-width="3"/>
  </g>
  <g transform="translate(785 175)">
    <rect x="0" y="80" width="100" height="120" rx="44" fill="#e7d8c6"/>
    <rect x="-24" y="204" width="148" height="160" rx="36" fill="#8f6c55"/>
    <rect x="-10" y="368" width="120" height="145" rx="32" fill="#2f3b4d"/>
  </g>
  <g fill="none" stroke="#c5a059" stroke-width="4" stroke-linecap="round" opacity="0.85">
    <path d="M278 620 C420 705 765 704 916 610"/>
    <path d="M510 140 C570 105 650 105 710 140"/>
  </g>
</svg>
