<svg xmlns="http://www.w3.org/2000/svg" width="1200" height="800" viewBox="0 0 1200 800" role="img" aria-labelledby="title desc">
  <title id="title">Taillierung</title>
  <desc id="desc">Ruhige ESKYNA Glossar-Grafik zum Begriff Taillierung</desc>
  <rect width="1200" height="800" fill="#F7EFE8"/>
  <rect x="86" y="86" width="1028" height="628" rx="44" fill="#FFFFFF" opacity="0.52"/>
  <circle cx="975" cy="160" r="82" fill="#E0C2B7" opacity="0.34"/>
  <circle cx="165" cy="648" r="96" fill="#E0C2B7" opacity="0.26"/>
  <path d="M140 602 C312 548 456 664 650 596 C820 538 913 570 1054 516" fill="none" stroke="#E0C2B7" stroke-width="3" opacity="0.58"/>

  <path d="M498 186 C438 280 424 470 486 612" fill="none" stroke="#2D2926" stroke-width="8" stroke-linecap="round"/>
  <path d="M702 186 C762 280 776 470 714 612" fill="none" stroke="#2D2926" stroke-width="8" stroke-linecap="round"/>
  <path d="M486 390 C548 420 652 420 714 390" fill="none" stroke="#8F5F57" stroke-width="10" stroke-linecap="round"/>
  <circle cx="600" cy="390" r="20" fill="#8F5F57"/>
  <rect x="786" y="250" width="66" height="290" rx="33" fill="#E0C2B7" opacity="0.86"/>
  <path d="M786 398 L852 398" stroke="#2D2926" stroke-width="6" stroke-linecap="round"/>

  <text x="600" y="706" text-anchor="middle" font-family="Georgia, 'Times New Roman', serif" font-size="52" fill="#2D2926">Taillierung</text>
  <text x="600" y="748" text-anchor="middle" font-family="Arial, sans-serif" font-size="18" letter-spacing="4" fill="#8F5F57" opacity="0.82">ESKYNA GLOSSAR</text>
</svg>
